<svg width="28" height="28" viewBox="0 0 28 28" fill="none" xmlns="http://www.w3.org/2000/svg">
<g clip-path="url(#clip0)">
<path d="M27.0605 13.314L20.8938 6.78064C20.5148 6.37866 19.8821 6.36033 19.4801 6.73965C19.0788 7.11867 19.0601 7.75164 19.4395 8.15331L24.9585 14L19.4395 19.8474C19.0601 20.2491 19.0788 20.8817 19.4801 21.261C19.6735 21.4434 19.9205 21.5337 20.1665 21.5337C20.4322 21.5337 20.6975 21.4284 20.8938 21.2207L27.0606 14.687C27.4242 14.3014 27.4242 13.6993 27.0605 13.314Z" fill="#EEEEEE"/>
<path d="M8.56095 19.8471L3.04227 14.0001L8.56095 8.15304C8.93996 7.75137 8.92163 7.11835 8.51996 6.73939C8.11861 6.36038 7.48527 6.37871 7.10631 6.78038L0.939606 13.3138C0.575958 13.6991 0.575958 14.3014 0.939606 14.6868L7.10662 21.2205C7.30329 21.4288 7.56829 21.5338 7.83397 21.5338C8.07996 21.5338 8.32699 21.4431 8.51996 21.2608C8.922 20.8818 8.93996 20.2488 8.56095 19.8471Z" fill="#EEEEEE"/>
<path d="M15.6182 3.41136C15.0725 3.3287 14.5618 3.70334 14.4785 4.24902L11.5452 23.4491C11.4618 23.9951 11.8368 24.5055 12.3828 24.5888C12.4342 24.5965 12.4848 24.6002 12.5352 24.6002C13.0208 24.6002 13.4468 24.2459 13.5225 23.7512L16.4559 4.55105C16.5392 4.00501 16.1642 3.49469 15.6182 3.41136Z" fill="#EEEEEE"/>
</g>
<defs>
<clipPath id="clip0">
<rect width="26.6667" height="26.6667" fill="white" transform="translate(0.66687 0.666687)"/>
</clipPath>
</defs>
</svg>
