<svg width="17" height="17" viewBox="0 0 17 17" fill="none" xmlns="http://www.w3.org/2000/svg">
<g clip-path="url(#clip0)">
<path d="M16.4961 7.90458L12.6419 3.82122C12.405 3.56998 12.0096 3.55853 11.7583 3.7956C11.5075 4.03249 11.4958 4.42809 11.7329 4.67914L15.1823 8.33333L11.7329 11.9879C11.4958 12.239 11.5075 12.6344 11.7583 12.8715C11.8792 12.9854 12.0335 13.0419 12.1873 13.0419C12.3533 13.0419 12.5192 12.9761 12.6419 12.8462L16.4961 8.76269C16.7233 8.52167 16.7233 8.1454 16.4961 7.90458Z" fill="#EEEEEE"/>
<path d="M4.9338 11.9878L1.48463 8.33335L4.9338 4.67896C5.17068 4.42792 5.15923 4.03228 4.90818 3.79543C4.65734 3.55854 4.2615 3.57 4.02465 3.82105L0.17046 7.90441C-0.05682 8.14523 -0.05682 8.52169 0.17046 8.76255L4.02484 12.8461C4.14776 12.9763 4.31339 13.0419 4.47944 13.0419C4.63318 13.0419 4.78758 12.9853 4.90818 12.8713C5.15945 12.6344 5.17068 12.2388 4.9338 11.9878Z" fill="#EEEEEE"/>
<path d="M9.34465 1.71539C9.00359 1.66373 8.68442 1.89788 8.63234 2.23893L6.79899 14.239C6.74691 14.5802 6.98128 14.8992 7.32253 14.9513C7.35463 14.9561 7.38627 14.9584 7.41775 14.9584C7.7213 14.9584 7.98754 14.737 8.03484 14.4278L9.86818 2.4277C9.92027 2.08642 9.68589 1.76748 9.34465 1.71539Z" fill="#EEEEEE"/>
</g>
<defs>
<clipPath id="clip0">
<rect width="16.6667" height="16.6667" fill="white"/>
</clipPath>
</defs>
</svg>
