<svg width="12" height="31" viewBox="0 0 12 31" fill="none" xmlns="http://www.w3.org/2000/svg">
<path d="M8.77124 9.41348L11.0667 8.04167C11.0502 7.81138 11.0279 7.58522 11.0023 7.36567C10.4955 2.88129 8.60781 0.666748 8.60781 0.666748C4.26457 3.55316 2.32077 9.10561 2.32077 9.10561L2.95632 11.2368L1.7793 10.7036C-0.255299 16.5466 1.91302 22.9855 1.91302 22.9855C2.08388 23.2405 2.26959 23.4188 2.45943 23.5467C4.97277 12.3973 6.58146 8.37513 6.58146 8.37513C6.01359 9.82287 4.51137 18.2328 3.55721 23.782C4.02934 23.7143 4.38261 23.4824 4.38261 23.4824C11.4455 15.7311 10.8199 9.27646 10.8199 9.27646C10.3263 8.99253 8.77124 9.41348 8.77124 9.41348Z" fill="#EEEEEE"/>
<path d="M2.45951 23.5467C2.10129 25.1315 1.06046 28.8135 0.666748 30.6946L1.62586 29.5836C1.62586 29.5836 2.703 26.3365 3.55729 23.7819C3.22548 23.8306 2.83507 23.7951 2.45951 23.5467Z" fill="#EEEEEE"/>
</svg>
