<svg width="7" height="19" viewBox="0 0 7 19" fill="none" xmlns="http://www.w3.org/2000/svg">
<path d="M5.06525 5.46671L6.49989 4.60933C6.48957 4.4654 6.47564 4.32405 6.45965 4.18682C6.14291 1.38409 4.9631 0 4.9631 0C2.24858 1.80401 1.0337 5.27429 1.0337 5.27429L1.43092 6.60627L0.695287 6.27302C-0.57634 9.92488 0.778858 13.9492 0.778858 13.9492C0.885644 14.1086 1.00172 14.22 1.12037 14.3C2.6912 7.33159 3.69664 4.81774 3.69664 4.81774C3.34172 5.72258 2.40283 10.9788 1.80648 14.447C2.10156 14.4047 2.32235 14.2598 2.32235 14.2598C6.73668 9.4152 6.34564 5.38107 6.34564 5.38107C6.03715 5.20361 5.06525 5.46671 5.06525 5.46671Z" fill="#EEEEEE"/>
<path d="M1.12048 14.3C0.896587 15.2904 0.246071 17.5917 0 18.7674L0.599444 18.0731C0.599444 18.0731 1.27266 16.0436 1.80659 14.447C1.59921 14.4774 1.3552 14.4552 1.12048 14.3Z" fill="#EEEEEE"/>
</svg>
