<svg width="16" height="16" viewBox="0 0 16 16" fill="none" xmlns="http://www.w3.org/2000/svg">
<g clip-path="url(#clip0)">
<path d="M7.80385 7.62696C8.85166 7.62696 9.75898 7.25116 10.5003 6.5097C11.2417 5.76836 11.6175 4.86128 11.6175 3.81336C11.6175 2.7658 11.2417 1.8586 10.5002 1.11702C9.75874 0.375803 8.85154 0 7.80385 0C6.75592 0 5.84884 0.375803 5.1075 1.11714C4.36616 1.85848 3.99023 2.76568 3.99023 3.81336C3.99023 4.86128 4.36616 5.76848 5.10762 6.50982C5.84909 7.25104 6.75628 7.62696 7.80385 7.62696V7.62696Z" fill="#EEEEEE"/>
<path d="M14.4768 12.175C14.4554 11.8665 14.4121 11.53 14.3485 11.1746C14.2842 10.8165 14.2015 10.478 14.1024 10.1687C14.0001 9.84893 13.8609 9.53316 13.6889 9.23056C13.5104 8.91648 13.3007 8.643 13.0654 8.41795C12.8193 8.18251 12.518 7.99322 12.1696 7.85515C11.8225 7.7178 11.4377 7.64822 11.0261 7.64822C10.8645 7.64822 10.7082 7.71454 10.4063 7.91108C10.2205 8.03224 10.0032 8.17237 9.76066 8.32735C9.55325 8.4595 9.27227 8.58332 8.92522 8.69542C8.58662 8.80499 8.24282 8.86055 7.9035 8.86055C7.56418 8.86055 7.2205 8.80499 6.88154 8.69542C6.53485 8.58344 6.25387 8.45962 6.0467 8.32747C5.80643 8.17394 5.589 8.03381 5.40043 7.91096C5.09892 7.71442 4.94248 7.6481 4.78085 7.6481C4.36917 7.6481 3.98455 7.7178 3.63749 7.85527C3.28935 7.9931 2.98796 8.18239 2.74165 8.41807C2.50645 8.64324 2.29663 8.9166 2.11833 9.23056C1.94643 9.53316 1.80727 9.8488 1.70483 10.1688C1.6059 10.4782 1.52315 10.8165 1.45889 11.1746C1.39523 11.5295 1.35198 11.8661 1.3306 12.1754C1.30958 12.4783 1.29895 12.7928 1.29895 13.1104C1.29895 13.9369 1.56169 14.606 2.07979 15.0994C2.5915 15.5864 3.26857 15.8334 4.09194 15.8334H11.7158C12.5392 15.8334 13.216 15.5865 13.7278 15.0994C14.246 14.6063 14.5088 13.9371 14.5088 13.1102C14.5087 12.7912 14.4979 12.4765 14.4768 12.175V12.175Z" fill="#EEEEEE"/>
</g>
<defs>
<clipPath id="clip0">
<rect width="15.8333" height="15.8333" fill="white"/>
</clipPath>
</defs>
</svg>
