<svg width="17" height="17" viewBox="0 0 17 17" fill="none" xmlns="http://www.w3.org/2000/svg">
<g clip-path="url(#clip0)">
<path d="M15.1783 13.3902V1.4881L14.7242 1.52617C12.9029 1.67673 11.1165 2.11211 9.43015 2.81663L8.63074 3.14855V15.0036L9.2129 14.7616C10.9579 14.0356 12.8055 13.5864 14.6891 13.4301L15.1783 13.3902Z" fill="#EEEEEE"/>
<path d="M16.6667 3.24765H15.7739V13.6643C15.7745 13.8195 15.6554 13.9491 15.5007 13.9619L14.7385 14.0244C14.5184 14.0426 14.299 14.0651 14.0805 14.092C14.0095 14.1006 13.9391 14.1119 13.8686 14.1218C13.7212 14.1414 13.5741 14.1613 13.4275 14.1846C13.3421 14.1982 13.2572 14.2142 13.172 14.2292C13.0408 14.2521 12.9093 14.275 12.7784 14.3008C12.689 14.3187 12.5998 14.3388 12.5086 14.3581C12.384 14.3845 12.2593 14.4116 12.1355 14.4411C12.0426 14.4632 11.95 14.4865 11.8578 14.5101C11.7373 14.5399 11.6174 14.572 11.4976 14.6054C11.4045 14.631 11.3113 14.658 11.2185 14.6853C11.0995 14.7205 10.9822 14.7563 10.8646 14.7938C10.7726 14.8235 10.6805 14.8533 10.5888 14.883C10.4711 14.9227 10.354 14.9636 10.2373 15.0059C10.148 15.0383 10.0587 15.0709 9.96741 15.105C9.92657 15.1206 9.88603 15.1372 9.84534 15.153H16.6667V3.24765Z" fill="#EEEEEE"/>
<path d="M1.94229 1.52617L1.48816 1.4881V13.3911L2.0164 13.436C3.89875 13.5934 5.74478 14.0454 7.48689 14.7753L8.03577 15.0036V3.14855L7.23723 2.81692C5.55077 2.11226 3.76404 1.67673 1.94229 1.52617V1.52617Z" fill="#EEEEEE"/>
<path d="M0 3.24765V15.1524H6.8262C6.78958 15.138 6.75296 15.1226 6.71605 15.109C6.63089 15.0766 6.545 15.0456 6.45926 15.0144C6.33836 14.9705 6.21759 14.9277 6.09581 14.8869C6.00775 14.8571 5.91939 14.8282 5.83089 14.8C5.71013 14.7603 5.58893 14.723 5.46759 14.6881C5.37822 14.6619 5.28899 14.6356 5.19976 14.6106C5.0774 14.5768 4.95475 14.5447 4.83181 14.5131C4.74258 14.4902 4.6532 14.4672 4.56194 14.4459C4.43726 14.4161 4.31184 14.3887 4.18658 14.3619C4.09735 14.3425 4.00798 14.3229 3.91875 14.305C3.78898 14.2795 3.65862 14.2565 3.52827 14.2337C3.44282 14.2187 3.35737 14.2039 3.27178 14.1886C3.12791 14.1658 2.9836 14.1465 2.8393 14.127C2.76635 14.1173 2.69398 14.1057 2.62117 14.0974C2.4029 14.0709 2.18462 14.0484 1.96635 14.0298L1.16519 13.9619C1.01071 13.9487 0.892276 13.8192 0.892857 13.6643V3.24765H0Z" fill="#EEEEEE"/>
</g>
<defs>
<clipPath id="clip0">
<rect width="16.6667" height="16.6667" fill="white"/>
</clipPath>
</defs>
</svg>
