<svg width="28" height="27" viewBox="0 0 28 27" fill="none" xmlns="http://www.w3.org/2000/svg">
<g clip-path="url(#clip0)">
<path d="M24.9523 21.4244V2.38097L24.2256 2.44189C21.3115 2.68277 18.4532 3.37939 15.7551 4.50662L14.4761 5.03768V24.0058L15.4075 23.6186C18.1996 22.457 21.1558 21.7383 24.1694 21.4881L24.9523 21.4244Z" fill="#EEEEEE"/>
<path d="M27.3337 5.19621H25.9051V21.8629C25.906 22.1112 25.7156 22.3186 25.468 22.3391L24.2484 22.4391C23.8964 22.4681 23.5453 22.5042 23.1956 22.5472C23.0821 22.5609 22.9694 22.579 22.8566 22.5948C22.6208 22.6262 22.3855 22.6581 22.1509 22.6953C22.0142 22.7171 21.8784 22.7427 21.7422 22.7667C21.5322 22.8034 21.3218 22.8399 21.1123 22.8813C20.9693 22.9099 20.8265 22.942 20.6807 22.9729C20.4812 23.0152 20.2817 23.0585 20.0836 23.1057C19.9351 23.141 19.7869 23.1784 19.6393 23.2161C19.4465 23.2638 19.2547 23.3152 19.0631 23.3686C18.9141 23.4096 18.765 23.4528 18.6165 23.4965C18.426 23.5528 18.2384 23.61 18.0503 23.67C17.9031 23.7177 17.7557 23.7653 17.609 23.8127C17.4206 23.8762 17.2332 23.9418 17.0465 24.0095C16.9038 24.0613 16.7608 24.1134 16.6147 24.168C16.5494 24.1929 16.4845 24.2194 16.4194 24.2448H27.3337V5.19621Z" fill="#EEEEEE"/>
<path d="M3.77446 2.44189L3.04785 2.38097V21.4258L3.89304 21.4976C6.9048 21.7495 9.85844 22.4726 12.6458 23.6405L13.524 24.0058V5.03768L12.2464 4.50708C9.54803 3.37962 6.68926 2.68277 3.77446 2.44189Z" fill="#EEEEEE"/>
<path d="M0.66687 5.19621V24.2438H11.5888C11.5302 24.2208 11.4716 24.1962 11.4125 24.1743C11.2763 24.1225 11.1389 24.0729 11.0017 24.0229C10.8082 23.9527 10.615 23.8844 10.4202 23.819C10.2793 23.7714 10.1379 23.7251 9.9963 23.68C9.80308 23.6165 9.60916 23.5567 9.41501 23.5009C9.27201 23.4591 9.12925 23.417 8.98649 23.377C8.79071 23.3228 8.59447 23.2715 8.39776 23.221C8.25499 23.1843 8.112 23.1475 7.96598 23.1133C7.76648 23.0657 7.56582 23.022 7.36539 22.9789C7.22263 22.948 7.07963 22.9166 6.93687 22.888C6.72923 22.8471 6.52067 22.8104 6.3121 22.7739C6.17538 22.7499 6.03866 22.7262 5.90171 22.7018C5.67152 22.6653 5.44063 22.6344 5.20975 22.6032C5.09302 22.5876 4.97723 22.569 4.86074 22.5558C4.5115 22.5135 4.16227 22.4774 3.81303 22.4477L2.53117 22.3391C2.28401 22.3179 2.09451 22.1107 2.09544 21.8629V5.19621H0.66687Z" fill="#EEEEEE"/>
</g>
<defs>
<clipPath id="clip0">
<rect width="26.6667" height="26.6667" fill="white" transform="translate(0.66687)"/>
</clipPath>
</defs>
</svg>
