<svg width="26" height="26" viewBox="0 0 26 26" fill="none" xmlns="http://www.w3.org/2000/svg">
<g clip-path="url(#clip0)">
<path d="M12.8194 12.5365C14.4959 12.5365 15.9476 11.9352 17.1338 10.7489C18.3199 9.56275 18.9212 8.11143 18.9212 6.43475C18.9212 4.75865 18.3199 3.30714 17.1336 2.12061C15.9473 0.93466 14.4957 0.333374 12.8194 0.333374C11.1428 0.333374 9.69143 0.93466 8.50528 2.1208C7.31913 3.30694 6.71765 4.75846 6.71765 6.43475C6.71765 8.11143 7.31913 9.56294 8.50547 10.7491C9.69181 11.935 11.1433 12.5365 12.8194 12.5365Z" fill="#EEEEEE"/>
<path d="M23.4961 19.8134C23.4619 19.3197 23.3927 18.7813 23.2909 18.2127C23.188 17.6398 23.0556 17.0982 22.8972 16.6032C22.7334 16.0916 22.5108 15.5864 22.2356 15.1022C21.9499 14.5997 21.6144 14.1621 21.2379 13.8021C20.8442 13.4254 20.3621 13.1225 19.8047 12.9016C19.2492 12.6818 18.6336 12.5705 17.9751 12.5705C17.7165 12.5705 17.4664 12.6766 16.9834 12.9911C16.6862 13.1849 16.3385 13.4091 15.9504 13.6571C15.6185 13.8686 15.1689 14.0667 14.6136 14.246C14.0719 14.4213 13.5218 14.5102 12.9789 14.5102C12.436 14.5102 11.8861 14.4213 11.3438 14.246C10.7891 14.0669 10.3395 13.8687 10.008 13.6573C9.6236 13.4116 9.2757 13.1874 8.97399 12.9909C8.49157 12.6764 8.24127 12.5703 7.98267 12.5703C7.32397 12.5703 6.70858 12.6818 6.15329 12.9018C5.59626 13.1223 5.11403 13.4252 4.71994 13.8023C4.34363 14.1625 4.0079 14.5999 3.72263 15.1022C3.44759 15.5864 3.22493 16.0914 3.06104 16.6034C2.90274 17.0984 2.77035 17.6398 2.66752 18.2127C2.56566 18.7805 2.49647 19.3192 2.46226 19.814C2.42863 20.2987 2.41162 20.8018 2.41162 21.3099C2.41162 22.6323 2.832 23.7029 3.66097 24.4924C4.4797 25.2715 5.56302 25.6668 6.8804 25.6668H19.0786C20.3959 25.6668 21.4789 25.2717 22.2978 24.4924C23.127 23.7035 23.5473 22.6327 23.5473 21.3097C23.5471 20.7993 23.5299 20.2958 23.4961 19.8134Z" fill="#EEEEEE"/>
</g>
<defs>
<clipPath id="clip0">
<rect width="25.3333" height="25.3333" fill="white" transform="translate(0.333374 0.333374)"/>
</clipPath>
</defs>
</svg>
